<svg width="610" height="549" viewBox="0 0 610 549" fill="none" xmlns="http://www.w3.org/2000/svg">
<path fill-rule="evenodd" clip-rule="evenodd" d="M592.233 0L473.786 122.709H306.269V146.405H502.552L592.233 0ZM461.096 190.411H306.269V502.685H348.571H349.417L439.098 225.954L610 275.884L461.096 190.411ZM365.869 336.308C360.058 337.746 353.981 338.509 347.725 338.509C342.807 338.509 337.998 338.037 333.343 337.136L366.27 317.081L419.992 284.359L418.376 289.301C409.81 312.484 390.165 330.295 365.869 336.308Z" fill="#25942A"/>
<path fill-rule="evenodd" clip-rule="evenodd" d="M348.571 502.685H349.417L439.098 225.954L419.992 284.359L418.376 289.301L348.571 502.685Z" fill="#026536"/>
<path fill-rule="evenodd" clip-rule="evenodd" d="M306.269 146.405H107.448L16.9209 0L67.6838 190.411H306.269H461.096H541.47L592.233 0L502.552 146.405H306.269ZM348.571 502.685H306.269H263.121L172.594 225.108L0 275.038C23.1253 296.477 84.9431 329.707 147.212 291.117L162.441 355.434C184.438 372.359 223.695 425.505 204.743 502.685L230.971 548.384H377.337L405.257 502.685C396.796 470.527 393.412 396.055 447.559 355.434L461.942 292.81C489.297 307.479 557.207 324.63 610 275.884L439.098 225.954L349.417 502.685H348.571Z" fill="#026536"/>
<path fill-rule="evenodd" clip-rule="evenodd" d="M366.27 317.081L333.343 337.136C337.998 338.037 342.807 338.509 347.725 338.509C353.981 338.509 360.058 337.746 365.869 336.308L327.42 502.685L306.269 502.685V190.411H383.259C351.544 219.435 358.681 287.042 366.27 317.081Z" fill="#35C033"/>
<path fill-rule="evenodd" clip-rule="evenodd" d="M420.012 284.347C420.012 284.347 419.997 284.358 419.992 284.359L420.012 284.347ZM419.992 284.359C419.504 286.03 418.975 287.681 418.376 289.301L419.992 284.359Z" fill="#1E1E1E"/>
</svg>
